<?xml version="1.0" encoding="UTF-8" standalone="no"?>
<svg
   xmlns:dc="http://purl.org/dc/elements/1.1/"
   xmlns:cc="http://creativecommons.org/ns#"
   xmlns:rdf="http://www.w3.org/1999/02/22-rdf-syntax-ns#"
   xmlns:svg="http://www.w3.org/2000/svg"
   xmlns="http://www.w3.org/2000/svg"
   xmlns:sodipodi="http://sodipodi.sourceforge.net/DTD/sodipodi-0.dtd"
   xmlns:inkscape="http://www.inkscape.org/namespaces/inkscape"
   width="541.47015mm"
   height="162.39999mm"
   viewBox="0 0 541.47013 162.39999"
   version="1.1"
   id="svg886"
   inkscape:version="1.0.2 (e86c870879, 2021-01-15)"
   sodipodi:docname="logo_v3_text.svg"
   inkscape:export-filename="/home/generall/projects/vector_search/landing_page/qdrant-landing/themes/qdrant/static/images/logo_v3_small.png"
   inkscape:export-xdpi="9.166667"
   inkscape:export-ydpi="9.166667">
  <defs
     id="defs880" />
  <sodipodi:namedview
     id="base"
     pagecolor="#ffffff"
     bordercolor="#666666"
     borderopacity="1.0"
     inkscape:pageopacity="0.0"
     inkscape:pageshadow="2"
     inkscape:zoom="0.35472096"
     inkscape:cx="1387.0889"
     inkscape:cy="38.343664"
     inkscape:document-units="mm"
     inkscape:current-layer="g10"
     inkscape:document-rotation="0"
     showgrid="false"
     inkscape:pagecheckerboard="true"
     fit-margin-left="5"
     fit-margin-top="5"
     fit-margin-right="5"
     fit-margin-bottom="5"
     inkscape:window-width="1920"
     inkscape:window-height="1053"
     inkscape:window-x="0"
     inkscape:window-y="27"
     inkscape:window-maximized="1" />
  <metadata
     id="metadata883">
    <rdf:RDF>
      <cc:Work
         rdf:about="">
        <dc:format>image/svg+xml</dc:format>
        <dc:type
           rdf:resource="http://purl.org/dc/dcmitype/StillImage" />
        <dc:title />
      </cc:Work>
    </rdf:RDF>
  </metadata>
  <g
     inkscape:label="Layer 1"
     inkscape:groupmode="layer"
     id="layer1"
     transform="translate(-25.341021,-22.63771)">
    <g
       transform="matrix(0.35277776,0,0,-0.35277776,-44.779828,244.94881)"
       id="g10"
       style="opacity:1">
      <path
         id="path14-3"
         style="fill:#201d1d;fill-opacity:1;fill-rule:evenodd;stroke:none;stroke-width:0.0999998"
         d="m 399.99966,615.99921 -93.54199,-54 -93.51709,-54 v -108.00003 -108 l 93.51709,-54 93.54199,-54.00001 59.84034,34.52783 63.60938,-34.52783 63.60938,36.70898 v 287.29106 l -93.542,54 z" />
      <path
         id="path14"
         style="fill:#201d1d;fill-opacity:1;fill-rule:evenodd;stroke:none;stroke-width:0.1"
         d="M 523.449,328.709 V 471.263 L 587.059,508 V 220.709 L 523.449,184 v 73.445 71.264" />
      <path
         id="path16"
         style="fill:#65676d;fill-opacity:1;fill-rule:evenodd;stroke:none;stroke-width:0.1"
         d="m 587.059,508 -63.61,-36.737 -61.738,35.632 -61.711,35.63 -61.738,-35.63 -61.711,-35.632 -63.61,36.737 93.516,54 93.543,54 93.516,-54 93.543,-54" />
      <path
         id="path18"
         style="fill:#a4a7a8;fill-opacity:1;fill-rule:evenodd;stroke:none;stroke-width:0.1"
         d="m 212.941,508 63.61,-36.737 V 328.709 L 338.262,293.077 400,257.445 V 184 l -93.543,54 -93.516,54 v 108 108" />
      <path
         id="path20"
         style="fill:#201d1d;fill-opacity:1;fill-rule:evenodd;stroke:none;stroke-width:0.1"
         d="M 459.84,292 400,257.445 V 184 l 59.84,34.527 V 292" />
      <path
         id="path22"
         style="fill:#65676d;fill-opacity:1;fill-rule:evenodd;stroke:none;stroke-width:0.1"
         d="M 400,400 340.16,434.525 400,469.08 459.84,434.525 400,400" />
      <path
         id="path24"
         style="fill:#a4a7a8;fill-opacity:1;fill-rule:evenodd;stroke:none;stroke-width:0.1"
         d="M 340.16,434.525 400,400 v -69.108 l -59.84,34.553 v 69.08" />
      <path
         id="path26"
         style="fill:#201d1d;fill-opacity:1;fill-rule:evenodd;stroke:none;stroke-width:0.1"
         d="m 400,400 59.84,34.525 v -69.08 L 400,330.892 V 400" />
      <path
         id="path28"
         style="fill:#bc1439;fill-opacity:1;fill-rule:evenodd;stroke:none;stroke-width:0.1"
         d="M 459.84,218.527 523.449,184 V 471.263 L 461.711,506.895 400,542.525 338.262,506.895 276.551,471.263 V 400 328.709 L 338.262,293.077 400,257.445 459.84,292 Z m 0,146.918 -59.84,-34.553 -59.84,34.553 v 69.08 L 400,469.08 459.84,434.525 v -69.08" />
      <text
         xml:space="preserve"
         style="font-style:normal;font-variant:normal;font-weight:normal;font-stretch:normal;font-size:360px;line-height:1.25;font-family:'Noto Sans Caucasian Albanian';-inkscape-font-specification:'Noto Sans Caucasian Albanian';fill:#bc1439;fill-opacity:1;stroke:none;stroke-width:0.75;"
         x="619.7832"
         y="-259.25787"
         id="text1747"
         transform="scale(1,-1)"><tspan
           sodipodi:role="line"
           id="tspan1745"
           x="619.7832"
           y="-259.25787"
           style="font-style:normal;font-variant:normal;font-weight:bold;font-stretch:normal;font-size:360px;font-family:Roboto;-inkscape-font-specification:'Roboto Bold';stroke-width:0.75;fill:#bc1439;fill-opacity:1;">drant</tspan></text>
    </g>
  </g>
</svg>
