<?xml version="1.0" encoding="UTF-8"?>
<svg width="511" height="113.32" fill="none" version="1.1" viewBox="0 0 511 113.32" xmlns="http://www.w3.org/2000/svg">
 <g transform="translate(-168,-144)">
  <path d="m224.09 256.1c-30.924 0-56.01-25.165-56.01-56.011-0.079-30.924 25.086-56.089 56.01-56.089s56.011 25.165 56.011 56.089c0 30.846-25.165 56.011-56.011 56.011zm0-104.21c-26.585 0-48.121 21.615-48.121 48.2 0 26.586 21.615 48.122 48.121 48.122 26.507 0 48.122-21.615 48.122-48.122 0-26.506-21.615-48.2-48.122-48.2z" fill="#dc244c"/>
  <path d="m224.01 224.15c-27.138 0-56.011-8.441-56.011-24.061 0-15.619 28.873-24.06 56.011-24.06 27.137 0 56.089 8.441 56.089 24.06 0 15.62-28.873 24.061-56.089 24.061zm0-40.312c-29.82 0-48.122 9.467-48.122 16.173 0 6.705 18.302 16.172 48.122 16.172 29.819 0 48.2-9.467 48.2-16.172 0-6.706-18.302-16.173-48.2-16.173z" fill="url(#paint0_linear_1576_286)"/>
  <path d="m209.02 253.42c-1.42 0-2.84-0.237-4.181-0.71-14.673-5.365-12.701-35.342-3.392-60.902 9.308-25.56 27.058-49.778 41.81-44.414 6.706 2.446 10.492 10.571 10.729 22.878 0.237 11.044-2.367 24.534-7.337 38.103-4.891 13.49-11.596 25.559-18.854 33.843-6.469 7.336-13.016 11.202-18.775 11.202zm-1.42-8.126c3.234 1.184 8.756-2.051 14.279-8.362 6.626-7.573 12.78-18.696 17.434-31.397s7.021-25.166 6.784-35.184c-0.157-8.441-2.287-14.358-5.601-15.62-6.311-2.209-21.457 11.754-31.634 39.759-10.255 28.085-7.652 48.517-1.262 50.804z" fill="url(#paint1_linear_1576_286)"/>
  <path d="m260.69 256.1h-36.605c-2.208 0-3.944-1.736-3.944-3.944 0-2.209 1.736-3.945 3.944-3.945h36.683c2.209 0 3.945 1.736 3.945 3.945 0 2.208-1.815 3.944-4.023 3.944z" fill="#dc244c"/>
  <path d="m328.1 256c-0.147-1.393-0.257-2.75-0.33-4.07v-4.18h-0.22c-0.807 1.393-1.833 2.677-3.08 3.85s-2.64 2.2-4.18 3.08c-1.54 0.807-3.19 1.43-4.95 1.87-1.687 0.513-3.373 0.77-5.06 0.77-6.6 0-11.477-1.723-14.63-5.17-3.153-3.52-4.73-8.507-4.73-14.96v-32.67h7.26v28.49c0 2.86 0.22 5.39 0.66 7.59s1.173 4.07 2.2 5.61c1.1 1.467 2.53 2.603 4.29 3.41 1.833 0.733 4.107 1.1 6.82 1.1 0.367 0 1.393-0.147 3.08-0.44s3.447-1.1 5.28-2.42c1.907-1.32 3.593-3.3 5.06-5.94s2.2-6.307 2.2-11v-26.4h7.26v40.15c0 1.393 0.037 3.153 0.11 5.28 0.147 2.127 0.293 4.143 0.44 6.05zm53.203-25.63c-1.833 0-4.143 0.11-6.93 0.33-2.713 0.147-5.353 0.587-7.92 1.32-2.493 0.66-4.657 1.723-6.49 3.19-1.76 1.467-2.64 3.483-2.64 6.05 0 1.687 0.33 3.153 0.99 4.4 0.733 1.173 1.687 2.163 2.86 2.97 1.173 0.733 2.457 1.283 3.85 1.65 1.467 0.293 2.933 0.44 4.4 0.44 2.64 0 4.913-0.44 6.82-1.32 1.98-0.88 3.63-2.053 4.95-3.52 1.32-1.54 2.273-3.3 2.86-5.28 0.66-2.053 0.99-4.217 0.99-6.49v-3.74zm3.74-5.94v-1.32c0-8.873-4.4-13.31-13.2-13.31-6.013 0-11.257 2.017-15.73 6.05l-4.4-5.17c4.84-4.987 12.1-7.48 21.78-7.48 2.493 0 4.877 0.367 7.15 1.1 2.347 0.733 4.363 1.87 6.05 3.41 1.687 1.467 3.043 3.337 4.07 5.61s1.54 4.987 1.54 8.14v22.99c0 1.98 0.073 4.07 0.22 6.27 0.22 2.127 0.44 3.887 0.66 5.28h-7.04c-0.22-1.247-0.403-2.603-0.55-4.07-0.073-1.467-0.11-2.897-0.11-4.29h-0.22c-2.127 3.447-4.657 5.94-7.59 7.48-2.86 1.467-6.38 2.2-10.56 2.2-2.273 0-4.473-0.33-6.6-0.99-2.127-0.587-4.033-1.503-5.72-2.75-1.613-1.32-2.933-2.897-3.96-4.73-0.953-1.907-1.43-4.107-1.43-6.6 0-4.18 1.063-7.443 3.19-9.79 2.2-2.42 4.913-4.217 8.14-5.39 3.3-1.173 6.783-1.907 10.45-2.2 3.74-0.293 7.15-0.44 10.23-0.44zm50.661-13.31h-14.85v30.36c0 1.907 0.183 3.483 0.55 4.73 0.367 1.173 0.88 2.09 1.54 2.75s1.43 1.137 2.31 1.43c0.953 0.22 1.98 0.33 3.08 0.33 1.247 0 2.53-0.183 3.85-0.55s2.53-0.843 3.63-1.43l0.33 6.71c-2.713 1.247-5.977 1.87-9.79 1.87-1.393 0-2.86-0.183-4.4-0.55-1.467-0.367-2.823-1.063-4.07-2.09s-2.273-2.42-3.08-4.18-1.21-4.07-1.21-6.93v-32.45h-10.89v-6.6h10.89v-14.52h7.26v14.52h14.85zm49.944 15.18c0-4.913-1.467-8.873-4.4-11.88-2.934-3.08-7.04-4.62-12.32-4.62-2.347 0-4.62 0.477-6.82 1.43-2.2 0.88-4.144 2.09-5.83 3.63-1.614 1.54-2.934 3.3-3.96 5.28-0.954 1.98-1.43 4.033-1.43 6.16zm-34.98 5.94c0.22 2.567 0.843 4.987 1.87 7.26 1.026 2.273 2.383 4.253 4.07 5.94 1.686 1.613 3.63 2.897 5.83 3.85s4.583 1.43 7.15 1.43c3.886 0 7.223-0.88 10.01-2.64 2.86-1.833 5.023-3.923 6.49-6.27l5.61 4.62c-3.08 3.887-6.49 6.673-10.23 8.36-3.667 1.687-7.627 2.53-11.88 2.53-3.814 0-7.37-0.66-10.67-1.98-3.227-1.393-6.014-3.3-8.36-5.72-2.347-2.42-4.217-5.28-5.611-8.58-1.319-3.3-1.979-6.893-1.979-10.78s0.66-7.48 1.979-10.78c1.321-3.3 3.154-6.16 5.501-8.58 2.346-2.42 5.096-4.29 8.25-5.61 3.153-1.393 6.563-2.09 10.23-2.09 3.886 0 7.37 0.697 10.45 2.09s5.646 3.263 7.7 5.61c2.126 2.273 3.74 4.987 4.84 8.14 1.1 3.08 1.65 6.38 1.65 9.9v3.3zm56.833-11.66c0-2.273-0.074-4.583-0.22-6.93-0.074-2.347-0.147-5.39-0.22-9.13h7.15v9.57h0.22c0.513-1.393 1.246-2.713 2.2-3.96 0.953-1.32 2.09-2.493 3.41-3.52 1.393-1.027 2.97-1.833 4.73-2.42 1.833-0.66 3.886-0.99 6.16-0.99 2.053 0 3.85 0.22 5.39 0.66l-1.43 7.15c-0.954-0.367-2.347-0.55-4.18-0.55-2.787 0-5.17 0.55-7.15 1.65-1.98 1.027-3.63 2.383-4.95 4.07-1.32 1.613-2.31 3.373-2.97 5.28-0.587 1.907-0.88 3.74-0.88 5.5v29.04h-7.26zm46.313-35.86c0 1.54-0.55 2.823-1.65 3.85-1.1 0.953-2.31 1.43-3.63 1.43s-2.53-0.477-3.63-1.43c-1.1-1.027-1.65-2.31-1.65-3.85s0.55-2.787 1.65-3.74c1.1-1.027 2.31-1.54 3.63-1.54s2.53 0.513 3.63 1.54c1.1 0.953 1.65 2.2 1.65 3.74zm-1.65 71.28h-7.26v-51.48h7.26zm61.626-25.74c0-2.86-0.477-5.537-1.43-8.03-0.88-2.493-2.164-4.657-3.85-6.49-1.687-1.833-3.74-3.263-6.16-4.29-2.347-1.1-5.024-1.65-8.03-1.65-3.007 0-5.72 0.55-8.14 1.65-2.347 1.027-4.364 2.457-6.05 4.29-1.614 1.833-2.897 3.997-3.85 6.49-0.88 2.493-1.32 5.17-1.32 8.03s0.44 5.537 1.32 8.03c0.953 2.493 2.236 4.657 3.85 6.49 1.686 1.833 3.703 3.3 6.05 4.4 2.42 1.027 5.133 1.54 8.14 1.54 3.006 0 5.683-0.513 8.03-1.54 2.42-1.1 4.473-2.567 6.16-4.4 1.686-1.833 2.97-3.997 3.85-6.49 0.953-2.493 1.43-5.17 1.43-8.03zm7.92 0c0 3.887-0.697 7.48-2.09 10.78-1.32 3.3-3.19 6.16-5.61 8.58s-5.317 4.327-8.69 5.72c-3.3 1.32-6.967 1.98-11 1.98-3.96 0-7.627-0.66-11-1.98-3.3-1.393-6.16-3.3-8.58-5.72s-4.327-5.28-5.72-8.58c-1.32-3.3-1.98-6.893-1.98-10.78s0.66-7.48 1.98-10.78c1.393-3.3 3.3-6.16 5.72-8.58s5.28-4.29 8.58-5.61c3.373-1.393 7.04-2.09 11-2.09 4.033 0 7.7 0.697 11 2.09 3.373 1.32 6.27 3.19 8.69 5.61s4.29 5.28 5.61 8.58c1.393 3.3 2.09 6.893 2.09 10.78zm20.105-25.74c0.147 1.393 0.22 2.787 0.22 4.18 0.073 1.32 0.11 2.677 0.11 4.07h0.22c0.807-1.393 1.833-2.677 3.08-3.85s2.64-2.163 4.18-2.97c1.54-0.88 3.153-1.54 4.84-1.98 1.76-0.513 3.483-0.77 5.17-0.77 6.6 0 11.477 1.76 14.63 5.28 3.153 3.447 4.73 8.397 4.73 14.85v32.67h-7.26v-28.49c0-5.72-0.99-10.083-2.97-13.09-1.98-3.08-5.647-4.62-11-4.62-0.367 0-1.393 0.147-3.08 0.44s-3.483 1.1-5.39 2.42c-1.833 1.32-3.483 3.3-4.95 5.94s-2.2 6.307-2.2 11v26.4h-7.26v-40.15c0-1.393-0.073-3.153-0.22-5.28-0.073-2.127-0.183-4.143-0.33-6.05z" fill="#dc244c"/>
 </g>
 <defs>
  <linearGradient id="paint0_linear_1576_286" x1="212.95" x2="210.53" y1="165.78" y2="239.09" gradientUnits="userSpaceOnUse">
   <stop stop-color="#DC244C" stop-opacity="0" offset=".03125"/>
   <stop stop-color="#DC244C" offset="1"/>
  </linearGradient>
  <linearGradient id="paint1_linear_1576_286" x1="256.52" x2="194.28" y1="206.59" y2="187.91" gradientUnits="userSpaceOnUse">
   <stop stop-color="#DC244C" offset="0"/>
   <stop stop-color="#DC244C" stop-opacity="0" offset=".94271"/>
  </linearGradient>
 </defs>
</svg>
